<svg xmlns="http://www.w3.org/2000/svg" id="SvgjsSvg284465" width="4096" height="1288.8159656369749" version="1.1" xmlns:xlink="http://www.w3.org/1999/xlink" xmlns:svgjs="http://svgjs.com/svgjs"><defs id="SvgjsDefs284466"></defs><g id="SvgjsG284467" transform="translate(328, 328.00000000000006) scale(34.4)" opacity="1"><defs id="SvgjsDefs72193"></defs><g id="SvgjsG72194" transform="scale(0.21645021645021645)" opacity="1"><g id="SvgjsG72195" class="8U4wk5yT4" transform="translate(7.105427357601002e-15, -8.025690361979738) scale(1.010410469845114)" light-content="false" non-strokable="false" fill="#f57723"><path d="M40.832 80.635l-1.521-8.391-32.226-6.171 9.788-51.122 45.945 8.796 12.042-2.184.327-1.703L12.948 7.943 0 75.581l62.239 11.915 2.13-11.129z"></path><path d="M87.715 12.99L25.361 24.296l12.287 67.76L100 80.751 87.715 12.99zM31.547 29.417l52.171-9.459 9.288 51.218-52.174 9.459-9.285-51.218z"></path></g><g id="SvgjsG72196" class="text" transform="translate(225.3571759098977, 73.43115764502427) scale(1)" light-content="false" fill="#000000"><path d="M-99.95 -10.56C-99.42 -10.44 -98.96 -10.28 -98.59 -10.08L-99.12 -8.83C-99.67 -9 -100.07 -9.12 -100.33 -9.17C-100.6 -9.23 -100.94 -9.26 -101.36 -9.26C-101.96 -9.26 -102.5 -9.09 -102.98 -8.76C-103.45 -8.42 -103.83 -7.95 -104.11 -7.33C-104.39 -6.72 -104.53 -6.01 -104.53 -5.21C-104.53 -4.48 -104.41 -3.81 -104.17 -3.22C-103.92 -2.62 -103.57 -2.14 -103.11 -1.79C-102.66 -1.43 -102.11 -1.25 -101.48 -1.25C-100.68 -1.25 -99.91 -1.41 -99.18 -1.73L-98.52 -0.43C-98.89 -0.25 -99.35 -0.09 -99.9 0.03C-100.45 0.15 -100.95 0.22 -101.41 0.22C-102.46 0.22 -103.35 -0.02 -104.1 -0.5C-104.84 -0.98 -105.4 -1.63 -105.77 -2.45C-106.15 -3.27 -106.34 -4.18 -106.34 -5.19C-106.34 -6.25 -106.13 -7.21 -105.72 -8.05C-105.31 -8.89 -104.72 -9.54 -103.96 -10.02C-103.21 -10.49 -102.32 -10.73 -101.31 -10.73C-100.94 -10.73 -100.49 -10.67 -99.95 -10.56Z M-94.08 -4.78L-94.08 0L-95.81 0L-95.81 -7.5L-94.88 -7.5L-94.31 -6.26C-93.94 -6.57 -93.52 -6.85 -93.04 -7.11C-92.56 -7.37 -92.14 -7.5 -91.78 -7.5L-91.42 -6.11C-91.79 -6.11 -92.23 -5.98 -92.72 -5.72C-93.21 -5.46 -93.67 -5.15 -94.08 -4.78Z M-82.27 -3.8L-82.27 -3.29L-87.46 -3.29C-87.31 -1.95 -86.51 -1.28 -85.07 -1.28C-84.67 -1.28 -84.31 -1.34 -83.99 -1.45C-83.68 -1.55 -83.3 -1.72 -82.86 -1.95L-82.33 -0.68C-83.17 -0.1 -84.09 0.19 -85.1 0.19C-86.46 0.19 -87.5 -0.17 -88.21 -0.87C-88.93 -1.58 -89.29 -2.54 -89.29 -3.76C-89.29 -4.54 -89.14 -5.23 -88.85 -5.82C-88.55 -6.41 -88.13 -6.87 -87.58 -7.2C-87.03 -7.53 -86.38 -7.7 -85.62 -7.7C-84.52 -7.7 -83.69 -7.33 -83.12 -6.6C-82.55 -5.87 -82.27 -4.94 -82.27 -3.8ZM-86.87 -5.75C-87.17 -5.44 -87.36 -5.01 -87.43 -4.45L-83.94 -4.45C-84.03 -5.03 -84.22 -5.47 -84.51 -5.77C-84.8 -6.06 -85.19 -6.21 -85.67 -6.21C-86.17 -6.21 -86.57 -6.06 -86.87 -5.75Z M-76.55 -6.12C-77.23 -6.12 -77.95 -5.95 -78.72 -5.61L-79.19 -7.03C-78.93 -7.21 -78.51 -7.36 -77.95 -7.5C-77.39 -7.63 -76.93 -7.7 -76.58 -7.7C-76.01 -7.7 -75.48 -7.58 -75 -7.34C-74.52 -7.11 -74.14 -6.78 -73.86 -6.38C-73.58 -5.97 -73.44 -5.51 -73.44 -5.01L-73.44 0L-74.6 0L-74.87 -0.76C-75.16 -0.48 -75.48 -0.25 -75.86 -0.08C-76.23 0.1 -76.6 0.19 -76.97 0.19C-77.83 0.19 -78.49 -0.03 -78.94 -0.46C-79.39 -0.9 -79.61 -1.47 -79.61 -2.19C-79.61 -2.95 -79.36 -3.53 -78.85 -3.94C-78.34 -4.35 -77.66 -4.56 -76.83 -4.56L-75.19 -4.56C-75.21 -5.6 -75.67 -6.12 -76.55 -6.12ZM-77.76 -3.05C-77.99 -2.82 -78.1 -2.53 -78.1 -2.19C-78.1 -1.93 -78 -1.69 -77.8 -1.49C-77.61 -1.29 -77.34 -1.19 -77 -1.19C-76.68 -1.19 -76.36 -1.27 -76.04 -1.42C-75.72 -1.58 -75.43 -1.79 -75.18 -2.06L-75.18 -3.4L-76.86 -3.4C-77.24 -3.4 -77.54 -3.28 -77.76 -3.05Z M-68.1 -7.43L-66.74 -7.43L-66.21 -6.11L-68.1 -6.11L-68.1 -2.53C-68.1 -2.13 -68.01 -1.81 -67.83 -1.57C-67.65 -1.33 -67.38 -1.21 -67.01 -1.21C-66.78 -1.21 -66.52 -1.27 -66.24 -1.39L-65.76 -0.11C-65.92 -0.01 -66.13 0.09 -66.4 0.16C-66.68 0.24 -66.93 0.28 -67.15 0.28C-67.99 0.28 -68.64 0.06 -69.12 -0.37C-69.59 -0.8 -69.83 -1.43 -69.83 -2.24L-69.83 -6.11L-70.86 -6.11L-70.86 -7.43L-69.83 -7.43L-69.83 -9.27L-68.1 -9.61Z M-56.5 -3.8L-56.5 -3.29L-61.7 -3.29C-61.54 -1.95 -60.74 -1.28 -59.3 -1.28C-58.9 -1.28 -58.54 -1.34 -58.23 -1.45C-57.91 -1.55 -57.53 -1.72 -57.09 -1.95L-56.57 -0.68C-57.4 -0.1 -58.32 0.19 -59.33 0.19C-60.69 0.19 -61.73 -0.17 -62.45 -0.87C-63.16 -1.58 -63.52 -2.54 -63.52 -3.76C-63.52 -4.54 -63.37 -5.23 -63.08 -5.82C-62.79 -6.41 -62.36 -6.87 -61.81 -7.2C-61.26 -7.53 -60.61 -7.7 -59.86 -7.7C-58.76 -7.7 -57.92 -7.33 -57.35 -6.6C-56.79 -5.87 -56.5 -4.94 -56.5 -3.8ZM-61.1 -5.75C-61.41 -5.44 -61.59 -5.01 -61.67 -4.45L-58.17 -4.45C-58.27 -5.03 -58.46 -5.47 -58.74 -5.77C-59.03 -6.06 -59.42 -6.21 -59.9 -6.21C-60.4 -6.21 -60.8 -6.06 -61.1 -5.75Z M-44.12 0L-45.85 0L-45.85 -4.14L-49.32 -10.2L-47.62 -10.76L-45 -5.89L-42.3 -10.51L-40.46 -10.51L-44.11 -4.11Z M-31.06 -1.68C-30.74 -2.28 -30.58 -2.97 -30.58 -3.76C-30.58 -4.54 -30.74 -5.23 -31.05 -5.83C-31.37 -6.43 -31.82 -6.89 -32.4 -7.21C-32.98 -7.54 -33.66 -7.7 -34.45 -7.7C-35.23 -7.7 -35.91 -7.53 -36.5 -7.2C-37.09 -6.87 -37.54 -6.41 -37.85 -5.82C-38.17 -5.23 -38.33 -4.54 -38.33 -3.76C-38.33 -2.96 -38.17 -2.27 -37.85 -1.68C-37.54 -1.08 -37.09 -0.62 -36.52 -0.29C-35.94 0.04 -35.26 0.2 -34.48 0.2C-33.69 0.2 -33.01 0.04 -32.42 -0.29C-31.83 -0.62 -31.38 -1.09 -31.06 -1.68ZM-32.95 -1.99C-33.34 -1.53 -33.85 -1.3 -34.48 -1.3C-35.11 -1.3 -35.61 -1.53 -35.98 -1.98C-36.36 -2.43 -36.55 -3.02 -36.55 -3.76C-36.54 -4.47 -36.34 -5.05 -35.95 -5.52C-35.57 -5.98 -35.06 -6.21 -34.45 -6.21C-33.82 -6.21 -33.32 -5.98 -32.94 -5.53C-32.56 -5.07 -32.37 -4.47 -32.37 -3.74C-32.37 -3.04 -32.57 -2.46 -32.95 -1.99Z M-22.7 -2.26L-22.7 -7.5L-20.95 -7.5L-20.95 0L-22.13 0L-22.44 -0.9C-22.87 -0.55 -23.34 -0.27 -23.86 -0.06C-24.37 0.14 -24.86 0.25 -25.31 0.25C-26.96 0.25 -27.78 -0.73 -27.78 -2.67L-27.78 -7.5L-26.05 -7.5L-26.05 -2.78C-26.05 -1.74 -25.67 -1.22 -24.89 -1.22C-24.27 -1.22 -23.53 -1.57 -22.7 -2.26Z M-15.9 -4.78L-15.9 0L-17.63 0L-17.63 -7.5L-16.7 -7.5L-16.13 -6.26C-15.76 -6.57 -15.33 -6.85 -14.85 -7.11C-14.38 -7.37 -13.96 -7.5 -13.59 -7.5L-13.24 -6.11C-13.61 -6.11 -14.04 -5.98 -14.54 -5.72C-15.03 -5.46 -15.49 -5.15 -15.9 -4.78Z M1.23 -1.68C1.55 -2.28 1.71 -2.97 1.71 -3.76C1.71 -4.54 1.55 -5.23 1.24 -5.83C0.92 -6.43 0.47 -6.89 -0.11 -7.21C-0.69 -7.54 -1.37 -7.7 -2.16 -7.7C-2.94 -7.7 -3.62 -7.53 -4.21 -7.2C-4.8 -6.87 -5.25 -6.41 -5.56 -5.82C-5.88 -5.23 -6.04 -4.54 -6.04 -3.76C-6.04 -2.96 -5.88 -2.27 -5.56 -1.68C-5.25 -1.08 -4.8 -0.62 -4.23 -0.29C-3.65 0.04 -2.97 0.2 -2.19 0.2C-1.4 0.2 -0.72 0.04 -0.13 -0.29C0.46 -0.62 0.91 -1.09 1.23 -1.68ZM-0.66 -1.99C-1.05 -1.53 -1.56 -1.3 -2.19 -1.3C-2.82 -1.3 -3.32 -1.53 -3.69 -1.98C-4.07 -2.43 -4.26 -3.02 -4.26 -3.76C-4.25 -4.47 -4.05 -5.05 -3.66 -5.52C-3.28 -5.98 -2.77 -6.21 -2.16 -6.21C-1.53 -6.21 -1.03 -5.98 -0.65 -5.53C-0.27 -5.07 -0.09 -4.47 -0.09 -3.74C-0.09 -3.04 -0.28 -2.46 -0.66 -1.99Z M12.11 0L10.6 0L9.07 -4.98L7.61 0L6.08 0L3.83 -7.22L5.51 -7.76L6.87 -2.66L8.15 -7.5L10.04 -7.5L11.38 -2.66L12.67 -7.5L14.48 -7.5Z M18.8 -5.24L18.8 0L17.07 0L17.07 -7.5L18.23 -7.5L18.54 -6.6C18.97 -6.95 19.45 -7.23 19.96 -7.43C20.48 -7.64 20.96 -7.74 21.42 -7.74C22.29 -7.74 22.93 -7.48 23.32 -6.96C23.71 -6.44 23.9 -5.73 23.9 -4.82L23.9 0L22.16 0L22.16 -4.71C22.16 -5.76 21.77 -6.28 21 -6.28C20.37 -6.28 19.64 -5.93 18.8 -5.24Z M37.8 -3.37L37.14 -3.28L34.43 -6.94L34.43 0L32.7 0L32.7 -10.51L33.78 -10.51L37.4 -5.49L40.78 -10.51L41.85 -10.51L41.85 0L40.09 0L40.09 -6.69Z M52.19 -3.8L52.19 -3.29L47 -3.29C47.15 -1.95 47.95 -1.28 49.39 -1.28C49.8 -1.28 50.15 -1.34 50.47 -1.45C50.78 -1.55 51.16 -1.72 51.6 -1.95L52.13 -0.68C51.29 -0.1 50.37 0.19 49.36 0.19C48 0.19 46.96 -0.17 46.25 -0.87C45.53 -1.58 45.17 -2.54 45.17 -3.76C45.17 -4.54 45.32 -5.23 45.61 -5.82C45.91 -6.41 46.33 -6.87 46.88 -7.2C47.43 -7.53 48.08 -7.7 48.84 -7.7C49.94 -7.7 50.77 -7.33 51.34 -6.6C51.91 -5.87 52.19 -4.94 52.19 -3.8ZM47.59 -5.75C47.29 -5.44 47.1 -5.01 47.03 -4.45L50.52 -4.45C50.43 -5.03 50.24 -5.47 49.95 -5.77C49.66 -6.06 49.27 -6.21 48.79 -6.21C48.3 -6.21 47.9 -6.06 47.59 -5.75Z M65.86 -7.02C65.48 -7.5 64.88 -7.74 64.06 -7.74C63.65 -7.74 63.2 -7.64 62.71 -7.43C62.22 -7.23 61.76 -6.96 61.33 -6.62C60.97 -7.37 60.28 -7.74 59.27 -7.74C58.86 -7.74 58.4 -7.64 57.91 -7.43C57.42 -7.23 56.95 -6.95 56.52 -6.6L56.21 -7.5L55.05 -7.5L55.05 0L56.78 0L56.78 -5.24C57.62 -5.93 58.31 -6.28 58.85 -6.28C59.23 -6.28 59.5 -6.14 59.66 -5.88C59.82 -5.62 59.9 -5.23 59.9 -4.71L59.9 0L61.65 0L61.65 -4.98C61.65 -5.12 61.65 -5.23 61.64 -5.3C62.02 -5.6 62.37 -5.84 62.7 -6.01C63.03 -6.19 63.35 -6.28 63.64 -6.28C64.03 -6.28 64.3 -6.14 64.46 -5.88C64.62 -5.62 64.7 -5.23 64.7 -4.71L64.7 0L66.44 0L66.44 -4.98C66.44 -5.85 66.25 -6.53 65.86 -7.02Z M76.51 -1.68C76.82 -2.28 76.98 -2.97 76.98 -3.76C76.98 -4.54 76.83 -5.23 76.51 -5.83C76.2 -6.43 75.75 -6.89 75.17 -7.21C74.59 -7.54 73.9 -7.7 73.12 -7.7C72.34 -7.7 71.65 -7.53 71.06 -7.2C70.48 -6.87 70.03 -6.41 69.71 -5.82C69.4 -5.23 69.24 -4.54 69.24 -3.76C69.24 -2.96 69.4 -2.27 69.71 -1.68C70.03 -1.08 70.47 -0.62 71.05 -0.29C71.63 0.04 72.31 0.2 73.09 0.2C73.87 0.2 74.56 0.04 75.14 -0.29C75.73 -0.62 76.19 -1.09 76.51 -1.68ZM74.61 -1.99C74.23 -1.53 73.72 -1.3 73.09 -1.3C72.46 -1.3 71.96 -1.53 71.58 -1.98C71.21 -2.43 71.02 -3.02 71.02 -3.76C71.03 -4.47 71.23 -5.05 71.61 -5.52C72 -5.98 72.5 -6.21 73.12 -6.21C73.75 -6.21 74.25 -5.98 74.63 -5.53C75 -5.07 75.19 -4.47 75.19 -3.74C75.19 -3.04 75 -2.46 74.61 -1.99Z M81.58 -4.78L81.58 0L79.84 0L79.84 -7.5L80.77 -7.5L81.34 -6.26C81.71 -6.57 82.14 -6.85 82.62 -7.11C83.1 -7.37 83.52 -7.5 83.88 -7.5L84.23 -6.11C83.86 -6.11 83.43 -5.98 82.94 -5.72C82.44 -5.46 81.99 -5.15 81.58 -4.78Z M88.41 -9C88.21 -8.8 87.97 -8.7 87.68 -8.7C87.39 -8.7 87.15 -8.8 86.96 -9C86.77 -9.2 86.68 -9.45 86.68 -9.74C86.68 -10.02 86.77 -10.26 86.97 -10.46C87.17 -10.66 87.4 -10.76 87.68 -10.76C87.97 -10.76 88.21 -10.66 88.41 -10.46C88.62 -10.26 88.72 -10.02 88.72 -9.74C88.72 -9.45 88.62 -9.2 88.41 -9ZM88.58 0L86.83 0L86.83 -7.5L88.58 -7.5Z M98.45 -3.8L98.45 -3.29L93.26 -3.29C93.42 -1.95 94.21 -1.28 95.66 -1.28C96.06 -1.28 96.42 -1.34 96.73 -1.45C97.05 -1.55 97.42 -1.72 97.87 -1.95L98.39 -0.68C97.56 -0.1 96.64 0.19 95.63 0.19C94.27 0.19 93.23 -0.17 92.51 -0.87C91.79 -1.58 91.44 -2.54 91.44 -3.76C91.44 -4.54 91.58 -5.23 91.88 -5.82C92.17 -6.41 92.59 -6.87 93.14 -7.2C93.7 -7.53 94.35 -7.7 95.1 -7.7C96.2 -7.7 97.04 -7.33 97.6 -6.6C98.17 -5.87 98.45 -4.94 98.45 -3.8ZM93.86 -5.75C93.55 -5.44 93.36 -5.01 93.29 -4.45L96.78 -4.45C96.69 -5.03 96.5 -5.47 96.21 -5.77C95.92 -6.06 95.54 -6.21 95.05 -6.21C94.56 -6.21 94.16 -6.06 93.86 -5.75Z M102.11 0.01C101.61 -0.12 101.21 -0.3 100.9 -0.53L101.42 -1.73C102.13 -1.39 102.8 -1.22 103.42 -1.22C103.81 -1.22 104.14 -1.29 104.42 -1.44C104.7 -1.58 104.84 -1.78 104.84 -2.02C104.84 -2.48 104.34 -2.86 103.35 -3.18C101.71 -3.72 100.88 -4.48 100.88 -5.47C100.88 -6.16 101.14 -6.71 101.65 -7.1C102.17 -7.5 102.87 -7.7 103.76 -7.7C104.11 -7.7 104.53 -7.63 105.02 -7.5C105.51 -7.36 105.91 -7.18 106.24 -6.96L105.7 -5.78C105.34 -5.95 105.01 -6.07 104.71 -6.16C104.4 -6.25 104.08 -6.29 103.73 -6.29C103.41 -6.29 103.14 -6.21 102.92 -6.06C102.71 -5.9 102.6 -5.71 102.6 -5.49C102.61 -5.31 102.73 -5.15 102.97 -5.01C103.2 -4.86 103.53 -4.72 103.96 -4.58C105.66 -3.97 106.51 -3.14 106.51 -2.1C106.51 -1.37 106.24 -0.8 105.71 -0.4C105.18 0 104.42 0.2 103.42 0.2C103.05 0.2 102.61 0.14 102.11 0.01Z"></path></g><g id="SvgjsG72197" class="text" transform="translate(389.18996483643326, 43.78365749214682) scale(1 1)" light-content="false" fill="#484bb4"><path d="M-44 -28.41L-45.59 -32.74C-48.17 -33.66 -50.96 -34.12 -53.97 -34.12C-55.91 -34.12 -57.7 -33.89 -59.37 -33.45C-61.03 -33.01 -62.55 -32.39 -63.93 -31.59C-65.31 -30.79 -66.54 -29.85 -67.61 -28.77C-68.69 -27.69 -69.6 -26.5 -70.33 -25.2C-71.06 -23.91 -71.62 -22.54 -72 -21.11C-72.38 -19.67 -72.58 -18.21 -72.58 -16.73C-72.58 -14.11 -72.1 -11.73 -71.14 -9.58C-70.18 -7.44 -68.84 -5.6 -67.11 -4.07C-65.39 -2.54 -63.33 -1.36 -60.93 -0.53C-58.54 0.31 -55.9 0.73 -53.01 0.73C-51.58 0.73 -50.15 0.6 -48.74 0.36C-47.33 0.12 -46.04 -0.23 -44.87 -0.68L-43 -5.45L-43.25 -5.62C-43.85 -4.95 -44.51 -4.35 -45.23 -3.83C-45.96 -3.3 -46.73 -2.86 -47.55 -2.49C-48.37 -2.13 -49.22 -1.85 -50.11 -1.66C-51 -1.47 -51.89 -1.38 -52.78 -1.38C-55.24 -1.38 -57.4 -1.81 -59.25 -2.68C-61.1 -3.55 -62.64 -4.73 -63.87 -6.25C-65.1 -7.76 -66.03 -9.55 -66.65 -11.62C-67.28 -13.69 -67.59 -15.91 -67.59 -18.3C-67.59 -20.47 -67.26 -22.4 -66.61 -24.1C-65.95 -25.8 -65.04 -27.24 -63.86 -28.41C-62.68 -29.58 -61.27 -30.47 -59.63 -31.09C-58 -31.7 -56.2 -32.01 -54.23 -32.01C-52.19 -32.01 -50.31 -31.68 -48.6 -31.01C-46.89 -30.33 -45.43 -29.44 -44.21 -28.31Z M-40.33 -6.9C-40.33 -4.56 -39.59 -2.76 -38.11 -1.49C-36.62 -0.21 -34.53 0.42 -31.81 0.42C-30.99 0.42 -30.23 0.35 -29.53 0.2C-28.84 0.05 -28.2 -0.14 -27.64 -0.39C-27.07 -0.63 -26.56 -0.9 -26.11 -1.19C-25.67 -1.49 -25.28 -1.78 -24.96 -2.06C-24.99 -1.62 -25.02 -1.25 -25.06 -0.94C-25.1 -0.62 -25.16 -0.34 -25.24 -0.09L-25.24 0L-20.07 0L-20.07 -0.09C-20.16 -0.42 -20.25 -0.83 -20.33 -1.31C-20.42 -1.79 -20.49 -2.39 -20.55 -3.11C-20.6 -3.83 -20.65 -4.68 -20.69 -5.67C-20.72 -6.67 -20.74 -7.82 -20.74 -9.15L-20.74 -16.78C-20.74 -17.84 -20.92 -18.83 -21.26 -19.76C-21.6 -20.69 -22.14 -21.5 -22.89 -22.19C-23.63 -22.89 -24.58 -23.44 -25.74 -23.83C-26.9 -24.23 -28.3 -24.43 -29.94 -24.43C-30.53 -24.43 -31.1 -24.41 -31.64 -24.37C-32.18 -24.33 -32.7 -24.27 -33.22 -24.17C-33.73 -24.08 -34.24 -23.96 -34.74 -23.81C-35.24 -23.66 -35.74 -23.47 -36.26 -23.24L-37.85 -19.94L-37.62 -19.8C-36.87 -20.37 -36.17 -20.85 -35.52 -21.22C-34.87 -21.6 -34.26 -21.89 -33.67 -22.11C-33.09 -22.33 -32.52 -22.49 -31.98 -22.58C-31.43 -22.67 -30.88 -22.72 -30.31 -22.72C-29.5 -22.72 -28.76 -22.6 -28.08 -22.36C-27.4 -22.12 -26.82 -21.75 -26.34 -21.26C-25.85 -20.77 -25.48 -20.15 -25.21 -19.4C-24.95 -18.65 -24.82 -17.76 -24.82 -16.73L-24.82 -15.54C-25.75 -15.52 -26.78 -15.47 -27.9 -15.39C-29.03 -15.3 -30.17 -15.14 -31.32 -14.92C-32.48 -14.69 -33.59 -14.38 -34.67 -13.98C-35.74 -13.58 -36.7 -13.07 -37.55 -12.43C-38.39 -11.79 -39.06 -11.01 -39.57 -10.11C-40.08 -9.2 -40.33 -8.14 -40.33 -6.9ZM-24.82 -13.71L-24.82 -9.15L-24.82 -6.68C-24.82 -5.96 -24.83 -5.3 -24.86 -4.7C-25.03 -4.34 -25.28 -3.97 -25.61 -3.59C-25.94 -3.21 -26.34 -2.86 -26.82 -2.54C-27.29 -2.22 -27.84 -1.95 -28.45 -1.74C-29.07 -1.53 -29.75 -1.43 -30.5 -1.43C-32.12 -1.43 -33.4 -1.91 -34.32 -2.88C-35.24 -3.85 -35.7 -5.25 -35.7 -7.09C-35.7 -8.53 -35.4 -9.68 -34.8 -10.54C-34.2 -11.41 -33.39 -12.07 -32.39 -12.54C-31.38 -13.01 -30.22 -13.32 -28.91 -13.47C-27.6 -13.61 -26.24 -13.7 -24.82 -13.71Z M2.42 -15.77L2.42 -9.15C2.42 -7.82 2.4 -6.67 2.36 -5.67C2.32 -4.68 2.28 -3.83 2.22 -3.11C2.17 -2.39 2.1 -1.79 2.01 -1.31C1.93 -0.83 1.84 -0.42 1.74 -0.09L1.74 0L7.15 0L7.15 -0.09C7.06 -0.42 6.97 -0.83 6.89 -1.31C6.81 -1.79 6.74 -2.39 6.68 -3.11C6.62 -3.83 6.57 -4.68 6.54 -5.67C6.51 -6.67 6.49 -7.82 6.49 -9.15L6.49 -17.11C6.49 -18.01 6.37 -18.9 6.13 -19.78C5.89 -20.67 5.5 -21.45 4.96 -22.14C4.42 -22.82 3.73 -23.38 2.88 -23.8C2.03 -24.22 0.99 -24.43 -0.22 -24.43C-1.02 -24.43 -1.83 -24.3 -2.66 -24.04C-3.48 -23.79 -4.29 -23.45 -5.09 -23.04C-5.89 -22.62 -6.65 -22.15 -7.39 -21.62C-8.14 -21.09 -8.83 -20.56 -9.47 -20.03C-9.39 -21 -9.31 -21.78 -9.24 -22.38C-9.17 -22.98 -9.08 -23.48 -8.95 -23.87L-8.95 -23.96L-14.36 -23.96L-14.36 -23.87C-14.26 -23.54 -14.17 -23.13 -14.09 -22.65C-14 -22.17 -13.93 -21.57 -13.88 -20.85C-13.82 -20.13 -13.77 -19.28 -13.74 -18.29C-13.7 -17.3 -13.68 -16.14 -13.68 -14.81L-13.68 -9.15C-13.68 -7.82 -13.7 -6.67 -13.74 -5.67C-13.77 -4.68 -13.82 -3.83 -13.88 -3.11C-13.93 -2.39 -14 -1.79 -14.09 -1.31C-14.17 -0.83 -14.26 -0.42 -14.36 -0.09L-14.36 0L-8.95 0L-8.95 -0.09C-9.04 -0.42 -9.13 -0.83 -9.21 -1.31C-9.29 -1.79 -9.36 -2.39 -9.42 -3.11C-9.48 -3.83 -9.53 -4.68 -9.56 -5.67C-9.59 -6.67 -9.61 -7.82 -9.61 -9.15L-9.61 -14.81L-9.56 -17.88C-8.98 -18.41 -8.37 -18.91 -7.71 -19.38C-7.06 -19.84 -6.4 -20.25 -5.74 -20.6C-5.09 -20.95 -4.45 -21.24 -3.83 -21.45C-3.2 -21.66 -2.64 -21.76 -2.14 -21.76C-0.75 -21.76 0.35 -21.28 1.18 -20.31C2.01 -19.34 2.42 -17.83 2.42 -15.77Z M15.74 -23.96L9.61 -23.96L9.61 -23.87C9.68 -23.77 9.83 -23.56 10.05 -23.22C10.27 -22.89 10.52 -22.47 10.81 -21.97C11.1 -21.47 11.4 -20.91 11.72 -20.28C12.04 -19.64 12.34 -18.99 12.62 -18.3L20.63 0.33L22.01 0.33L30.64 -19.45C31.13 -20.58 31.58 -21.53 32.01 -22.29C32.44 -23.05 32.8 -23.57 33.08 -23.87L33.08 -23.96L28.86 -23.96L28.86 -23.87C28.89 -23.82 28.93 -23.73 28.96 -23.6C28.99 -23.47 29 -23.3 29 -23.1C29 -22.39 28.87 -21.7 28.61 -21.01C28.34 -20.33 28.09 -19.7 27.86 -19.12L22.19 -5.99L16.6 -19.31C16.24 -20.18 15.99 -20.91 15.85 -21.49C15.71 -22.08 15.64 -22.61 15.64 -23.1C15.64 -23.22 15.65 -23.36 15.67 -23.52C15.68 -23.67 15.71 -23.79 15.74 -23.87Z M34.48 -6.9C34.48 -4.56 35.22 -2.76 36.7 -1.49C38.18 -0.21 40.28 0.42 43 0.42C43.82 0.42 44.58 0.35 45.28 0.2C45.97 0.05 46.61 -0.14 47.17 -0.39C47.74 -0.63 48.25 -0.9 48.7 -1.19C49.14 -1.49 49.53 -1.78 49.85 -2.06C49.82 -1.62 49.79 -1.25 49.75 -0.94C49.71 -0.62 49.65 -0.34 49.57 -0.09L49.57 0L54.74 0L54.74 -0.09C54.65 -0.42 54.56 -0.83 54.48 -1.31C54.39 -1.79 54.32 -2.39 54.26 -3.11C54.21 -3.83 54.16 -4.68 54.12 -5.67C54.09 -6.67 54.07 -7.82 54.07 -9.15L54.07 -16.78C54.07 -17.84 53.89 -18.83 53.55 -19.76C53.21 -20.69 52.67 -21.5 51.92 -22.19C51.18 -22.89 50.23 -23.44 49.07 -23.83C47.91 -24.23 46.51 -24.43 44.87 -24.43C44.28 -24.43 43.71 -24.41 43.17 -24.37C42.63 -24.33 42.11 -24.27 41.59 -24.17C41.08 -24.08 40.57 -23.96 40.07 -23.81C39.57 -23.66 39.07 -23.47 38.55 -23.24L36.96 -19.94L37.19 -19.8C37.94 -20.37 38.64 -20.85 39.29 -21.22C39.94 -21.6 40.55 -21.89 41.14 -22.11C41.72 -22.33 42.29 -22.49 42.83 -22.58C43.38 -22.67 43.93 -22.72 44.5 -22.72C45.31 -22.72 46.05 -22.6 46.73 -22.36C47.41 -22.12 47.99 -21.75 48.47 -21.26C48.96 -20.77 49.33 -20.15 49.6 -19.4C49.86 -18.65 49.99 -17.76 49.99 -16.73L49.99 -15.54C49.06 -15.52 48.03 -15.47 46.91 -15.39C45.78 -15.3 44.64 -15.14 43.49 -14.92C42.33 -14.69 41.22 -14.38 40.14 -13.98C39.07 -13.58 38.11 -13.07 37.26 -12.43C36.42 -11.79 35.75 -11.01 35.24 -10.11C34.73 -9.2 34.48 -8.14 34.48 -6.9ZM49.99 -13.71L49.99 -9.15L49.99 -6.68C49.99 -5.96 49.98 -5.3 49.95 -4.7C49.78 -4.34 49.53 -3.97 49.2 -3.59C48.87 -3.21 48.47 -2.86 47.99 -2.54C47.52 -2.22 46.97 -1.95 46.36 -1.74C45.74 -1.53 45.06 -1.43 44.31 -1.43C42.69 -1.43 41.41 -1.91 40.49 -2.88C39.57 -3.85 39.11 -5.25 39.11 -7.09C39.11 -8.53 39.41 -9.68 40.01 -10.54C40.61 -11.41 41.42 -12.07 42.42 -12.54C43.43 -13.01 44.59 -13.32 45.9 -13.47C47.21 -13.61 48.57 -13.7 49.99 -13.71Z M71.71 -19.26L71.48 -23.14C71.02 -23.39 70.36 -23.65 69.5 -23.93C68.63 -24.2 67.55 -24.34 66.26 -24.34C65.27 -24.34 64.37 -24.19 63.54 -23.89C62.72 -23.6 62 -23.18 61.4 -22.64C60.8 -22.1 60.33 -21.45 60 -20.7C59.66 -19.94 59.49 -19.11 59.49 -18.21C59.49 -17.1 59.72 -16.11 60.18 -15.25C60.65 -14.38 61.23 -13.58 61.93 -12.86C62.63 -12.13 63.38 -11.45 64.19 -10.81C64.99 -10.17 65.74 -9.53 66.44 -8.89C67.15 -8.25 67.73 -7.59 68.19 -6.89C68.65 -6.2 68.88 -5.44 68.88 -4.61C68.88 -3.58 68.54 -2.75 67.86 -2.11C67.18 -1.47 66.26 -1.15 65.11 -1.15C64.41 -1.15 63.76 -1.27 63.17 -1.51C62.58 -1.75 62.05 -2.09 61.59 -2.52C61.13 -2.94 60.74 -3.46 60.43 -4.07C60.12 -4.68 59.88 -5.35 59.73 -6.08L59.35 -6.08L59.12 -1.64C59.45 -1.4 59.83 -1.16 60.26 -0.9C60.68 -0.64 61.17 -0.41 61.71 -0.2C62.24 0.01 62.84 0.19 63.48 0.33C64.13 0.47 64.83 0.54 65.58 0.54C66.84 0.54 67.93 0.35 68.84 -0.01C69.76 -0.38 70.5 -0.86 71.09 -1.45C71.67 -2.04 72.11 -2.72 72.39 -3.47C72.67 -4.23 72.81 -5.01 72.81 -5.8C72.81 -6.79 72.57 -7.7 72.1 -8.55C71.62 -9.4 71.02 -10.2 70.31 -10.95C69.59 -11.7 68.81 -12.42 67.98 -13.1C67.14 -13.79 66.37 -14.47 65.65 -15.15C64.93 -15.83 64.33 -16.52 63.86 -17.21C63.38 -17.9 63.14 -18.63 63.14 -19.4C63.14 -19.94 63.24 -20.42 63.43 -20.83C63.61 -21.23 63.87 -21.57 64.19 -21.84C64.51 -22.12 64.88 -22.32 65.31 -22.46C65.74 -22.6 66.19 -22.67 66.68 -22.67C67.38 -22.67 68 -22.56 68.54 -22.34C69.08 -22.11 69.54 -21.82 69.92 -21.48C70.3 -21.14 70.61 -20.76 70.86 -20.36C71.1 -19.95 71.27 -19.57 71.38 -19.21Z"></path></g><g id="SvgjsG72198" class="text" transform="translate(214.75317593392614, 43.62886004098545) scale(1 1)" light-content="false" fill="#f57723"><path d="M-95.89 -0.09L-95.89 0L-91.21 0C-91.26 -0.25 -91.31 -0.54 -91.35 -0.87C-91.38 -1.15 -91.42 -1.49 -91.45 -1.9C-91.48 -2.3 -91.49 -2.77 -91.49 -3.3C-91.49 -3.72 -91.46 -4.37 -91.38 -5.25C-91.3 -6.13 -91.19 -7.15 -91.06 -8.31C-90.93 -9.46 -90.78 -10.71 -90.6 -12.04C-90.43 -13.37 -90.26 -14.71 -90.09 -16.05C-89.68 -19.19 -89.21 -22.6 -88.66 -26.3L-74.76 -0.28L-73.15 -0.09L-59.34 -26.07L-56.37 -3.65C-56.34 -3.4 -56.32 -3.17 -56.3 -2.96C-56.28 -2.75 -56.28 -2.54 -56.28 -2.34C-56.28 -1.79 -56.31 -1.33 -56.38 -0.94C-56.45 -0.55 -56.53 -0.27 -56.6 -0.09L-56.6 0L-50.71 0L-50.71 -0.09C-50.82 -0.28 -50.93 -0.52 -51.05 -0.81C-51.16 -1.1 -51.29 -1.46 -51.41 -1.91C-51.53 -2.35 -51.66 -2.89 -51.78 -3.51C-51.91 -4.13 -52.03 -4.88 -52.14 -5.76L-55.97 -33.56L-58.2 -33.56L-72.8 -6.04L-87.52 -33.56L-90.49 -33.56C-90.53 -33.12 -90.61 -32.47 -90.71 -31.6C-90.81 -30.74 -90.94 -29.72 -91.1 -28.55C-91.25 -27.38 -91.43 -26.09 -91.62 -24.68C-91.82 -23.26 -92.02 -21.8 -92.23 -20.28C-92.44 -18.76 -92.66 -17.21 -92.89 -15.64C-93.11 -14.08 -93.34 -12.54 -93.57 -11.04C-93.79 -9.55 -94.01 -8.12 -94.22 -6.75C-94.43 -5.39 -94.62 -4.16 -94.79 -3.07C-94.92 -2.32 -95.09 -1.7 -95.31 -1.21C-95.53 -0.71 -95.72 -0.34 -95.89 -0.09Z M-47.06 -6.9C-47.06 -4.56 -46.32 -2.76 -44.83 -1.49C-43.35 -0.21 -41.25 0.42 -38.54 0.42C-37.71 0.42 -36.95 0.35 -36.26 0.2C-35.56 0.05 -34.93 -0.14 -34.36 -0.39C-33.79 -0.63 -33.29 -0.9 -32.84 -1.19C-32.4 -1.49 -32.01 -1.78 -31.68 -2.06C-31.71 -1.62 -31.75 -1.25 -31.79 -0.94C-31.83 -0.62 -31.89 -0.34 -31.96 -0.09L-31.96 0L-26.79 0L-26.79 -0.09C-26.89 -0.42 -26.98 -0.83 -27.06 -1.31C-27.15 -1.79 -27.22 -2.39 -27.27 -3.11C-27.33 -3.83 -27.37 -4.68 -27.41 -5.67C-27.45 -6.67 -27.47 -7.82 -27.47 -9.15L-27.47 -16.78C-27.47 -17.84 -27.64 -18.83 -27.99 -19.76C-28.33 -20.69 -28.87 -21.5 -29.61 -22.19C-30.35 -22.89 -31.31 -23.44 -32.47 -23.83C-33.63 -24.23 -35.03 -24.43 -36.67 -24.43C-37.26 -24.43 -37.83 -24.41 -38.36 -24.37C-38.9 -24.33 -39.43 -24.27 -39.94 -24.17C-40.46 -24.08 -40.97 -23.96 -41.46 -23.81C-41.96 -23.66 -42.47 -23.47 -42.99 -23.24L-44.58 -19.94L-44.34 -19.8C-43.59 -20.37 -42.9 -20.85 -42.25 -21.22C-41.6 -21.6 -40.99 -21.89 -40.4 -22.11C-39.82 -22.33 -39.25 -22.49 -38.7 -22.58C-38.16 -22.67 -37.6 -22.72 -37.04 -22.72C-36.23 -22.72 -35.49 -22.6 -34.81 -22.36C-34.13 -22.12 -33.55 -21.75 -33.06 -21.26C-32.58 -20.77 -32.21 -20.15 -31.94 -19.4C-31.68 -18.65 -31.54 -17.76 -31.54 -16.73L-31.54 -15.54C-32.48 -15.52 -33.51 -15.47 -34.63 -15.39C-35.76 -15.3 -36.89 -15.14 -38.05 -14.92C-39.2 -14.69 -40.32 -14.38 -41.39 -13.98C-42.47 -13.58 -43.43 -13.07 -44.27 -12.43C-45.12 -11.79 -45.79 -11.01 -46.3 -10.11C-46.8 -9.2 -47.06 -8.14 -47.06 -6.9ZM-31.54 -13.71L-31.54 -9.15L-31.54 -6.68C-31.54 -5.96 -31.56 -5.3 -31.59 -4.7C-31.76 -4.34 -32.01 -3.97 -32.34 -3.59C-32.67 -3.21 -33.07 -2.86 -33.54 -2.54C-34.02 -2.22 -34.57 -1.95 -35.18 -1.74C-35.8 -1.53 -36.48 -1.43 -37.23 -1.43C-38.85 -1.43 -40.12 -1.91 -41.04 -2.88C-41.96 -3.85 -42.42 -5.25 -42.42 -7.09C-42.42 -8.53 -42.12 -9.68 -41.52 -10.54C-40.92 -11.41 -40.12 -12.07 -39.11 -12.54C-38.11 -13.01 -36.95 -13.32 -35.64 -13.47C-34.33 -13.61 -32.96 -13.7 -31.54 -13.71Z M-20.4 -25.83L-20.4 -9.15C-20.4 -7.82 -20.42 -6.67 -20.46 -5.67C-20.5 -4.68 -20.55 -3.83 -20.6 -3.11C-20.66 -2.39 -20.73 -1.79 -20.81 -1.31C-20.9 -0.83 -20.99 -0.42 -21.08 -0.09L-21.08 0L-15.68 0L-15.68 -0.09C-15.77 -0.42 -15.86 -0.83 -15.94 -1.31C-16.01 -1.79 -16.08 -2.39 -16.15 -3.11C-16.21 -3.83 -16.26 -4.68 -16.29 -5.67C-16.32 -6.67 -16.33 -7.82 -16.33 -9.15L-16.33 -12.94L-7.91 -2.93C-7.36 -2.25 -6.98 -1.7 -6.77 -1.26C-6.56 -0.83 -6.46 -0.41 -6.46 0L0.33 0L0.33 -0.09C0.06 -0.16 -0.23 -0.3 -0.54 -0.51C-0.85 -0.73 -1.17 -0.99 -1.5 -1.29C-1.83 -1.58 -2.15 -1.91 -2.48 -2.26C-2.81 -2.61 -3.11 -2.96 -3.39 -3.3L-12.8 -14.41L-5.94 -20.66C-5.48 -21.08 -5.04 -21.46 -4.64 -21.8C-4.25 -22.13 -3.86 -22.43 -3.5 -22.7C-3.13 -22.96 -2.77 -23.19 -2.4 -23.39C-2.03 -23.58 -1.65 -23.74 -1.24 -23.87L-1.24 -23.96L-6.67 -23.96C-6.67 -23.18 -7.34 -22.21 -8.68 -21.04L-16.33 -14.18L-16.33 -25.83C-16.33 -27.16 -16.32 -28.32 -16.29 -29.31C-16.26 -30.3 -16.21 -31.15 -16.15 -31.87C-16.08 -32.59 -16.01 -33.19 -15.94 -33.67C-15.86 -34.16 -15.77 -34.56 -15.68 -34.89L-15.68 -34.98L-21.08 -34.98L-21.08 -34.89C-20.99 -34.56 -20.9 -34.16 -20.81 -33.67C-20.73 -33.19 -20.66 -32.59 -20.6 -31.87C-20.55 -31.15 -20.5 -30.3 -20.46 -29.31C-20.42 -28.32 -20.4 -27.16 -20.4 -25.83Z M12.89 0.42C14.53 0.42 15.94 0.27 17.11 -0.04C18.28 -0.34 19.28 -0.71 20.12 -1.15L21.86 -5.31L21.57 -5.45C21.22 -4.86 20.78 -4.31 20.26 -3.8C19.75 -3.3 19.16 -2.85 18.51 -2.48C17.85 -2.11 17.12 -1.81 16.32 -1.6C15.52 -1.39 14.66 -1.29 13.76 -1.29C12.45 -1.29 11.27 -1.54 10.24 -2.04C9.2 -2.54 8.32 -3.25 7.59 -4.18C6.87 -5.11 6.3 -6.22 5.89 -7.53C5.47 -8.85 5.22 -10.31 5.12 -11.93C6.15 -11.97 7.31 -11.99 8.6 -12C9.89 -12.02 11.21 -12.03 12.57 -12.03C14.47 -12.03 16.3 -12.02 18.06 -12C19.83 -11.99 21.59 -11.97 23.35 -11.93C23.31 -13.92 22.99 -15.68 22.41 -17.23C21.82 -18.79 21.02 -20.09 20.02 -21.14C19.01 -22.19 17.82 -23 16.45 -23.55C15.08 -24.11 13.59 -24.38 11.98 -24.38C10.36 -24.38 8.85 -24.07 7.45 -23.45C6.06 -22.82 4.84 -21.96 3.79 -20.85C2.75 -19.74 1.93 -18.44 1.33 -16.93C0.74 -15.42 0.44 -13.79 0.44 -12.03C0.44 -10.03 0.77 -8.26 1.42 -6.7C2.06 -5.15 2.95 -3.85 4.07 -2.8C5.19 -1.74 6.51 -0.94 8.03 -0.4C9.54 0.15 11.16 0.42 12.89 0.42ZM9.78 -13.85L7.35 -13.85C6.57 -13.85 5.83 -13.87 5.12 -13.9C5.19 -15.29 5.39 -16.52 5.73 -17.61C6.08 -18.69 6.53 -19.61 7.09 -20.36C7.65 -21.11 8.31 -21.68 9.07 -22.08C9.82 -22.48 10.65 -22.67 11.56 -22.67C12.56 -22.67 13.47 -22.47 14.3 -22.07C15.12 -21.66 15.84 -21.08 16.45 -20.33C17.06 -19.59 17.56 -18.67 17.95 -17.6C18.34 -16.52 18.6 -15.3 18.74 -13.95C17.46 -13.9 16.04 -13.87 14.47 -13.86C12.91 -13.86 11.34 -13.85 9.78 -13.85Z M26.47 -0.09L26.47 0L31.15 0C31.1 -0.25 31.05 -0.54 31.01 -0.87C30.97 -1.15 30.94 -1.49 30.91 -1.9C30.88 -2.3 30.86 -2.77 30.86 -3.3C30.86 -3.72 30.9 -4.37 30.98 -5.25C31.06 -6.13 31.16 -7.15 31.3 -8.31C31.43 -9.46 31.58 -10.71 31.75 -12.04C31.93 -13.37 32.1 -14.71 32.27 -16.05C32.67 -19.19 33.15 -22.6 33.7 -26.3L47.6 -0.28L49.21 -0.09L63.02 -26.07L65.99 -3.65C66.02 -3.4 66.04 -3.17 66.06 -2.96C66.07 -2.75 66.08 -2.54 66.08 -2.34C66.08 -1.79 66.05 -1.33 65.98 -0.94C65.91 -0.55 65.83 -0.27 65.75 -0.09L65.75 0L71.65 0L71.65 -0.09C71.54 -0.28 71.43 -0.52 71.31 -0.81C71.19 -1.1 71.07 -1.46 70.95 -1.91C70.83 -2.35 70.7 -2.89 70.57 -3.51C70.45 -4.13 70.33 -4.88 70.22 -5.76L66.39 -33.56L64.16 -33.56L49.56 -6.04L34.84 -33.56L31.87 -33.56C31.82 -33.12 31.75 -32.47 31.65 -31.6C31.55 -30.74 31.42 -29.72 31.26 -28.55C31.11 -27.38 30.93 -26.09 30.74 -24.68C30.54 -23.26 30.34 -21.8 30.13 -20.28C29.92 -18.76 29.7 -17.21 29.47 -15.64C29.25 -14.08 29.02 -12.54 28.79 -11.04C28.57 -9.55 28.35 -8.12 28.14 -6.75C27.93 -5.39 27.74 -4.16 27.57 -3.07C27.44 -2.32 27.27 -1.7 27.05 -1.21C26.83 -0.71 26.64 -0.34 26.47 -0.09Z M84.68 -0.28L81.39 7.53C80.9 8.66 80.45 9.59 80.02 10.33C79.59 11.07 79.22 11.59 78.93 11.89L78.93 11.98L83.3 11.98L83.3 11.89C83.27 11.84 83.24 11.75 83.21 11.62C83.18 11.49 83.16 11.32 83.16 11.12C83.16 10.41 83.29 9.72 83.55 9.03C83.81 8.35 84.06 7.71 84.31 7.14L95.47 -19.45C95.96 -20.58 96.41 -21.53 96.84 -22.29C97.27 -23.05 97.62 -23.57 97.91 -23.87L97.91 -23.96L93.69 -23.96L93.69 -23.87C93.72 -23.82 93.76 -23.73 93.79 -23.6C93.82 -23.47 93.83 -23.3 93.83 -23.1C93.83 -22.39 93.71 -21.7 93.45 -21.01C93.19 -20.33 92.94 -19.7 92.69 -19.12L86.79 -5.27L80.33 -19.31C79.93 -20.18 79.65 -20.91 79.5 -21.49C79.35 -22.08 79.28 -22.61 79.28 -23.1C79.28 -23.22 79.29 -23.36 79.3 -23.52C79.32 -23.67 79.34 -23.79 79.37 -23.87L79.37 -23.96L73.24 -23.96L73.24 -23.87C73.32 -23.77 73.48 -23.56 73.71 -23.22C73.94 -22.89 74.21 -22.47 74.52 -21.97C74.82 -21.47 75.15 -20.91 75.49 -20.28C75.83 -19.64 76.15 -18.99 76.45 -18.3Z"></path></g></g></g></svg>